<svg width="75" height="22" viewBox="0 0 75 22" fill="none" xmlns="http://www.w3.org/2000/svg">
<path fill-rule="evenodd" clip-rule="evenodd" d="M3.92963 0.306641H4.76285C4.86846 0.306641 4.95408 0.392261 4.95408 0.497871V19.9761C4.95408 20.0893 5.04581 20.181 5.15897 20.181H7.75425C7.86228 20.1808 7.95194 20.2645 7.95914 20.3722V20.8776C7.95194 20.9854 7.86228 21.0691 7.75425 21.0689H1.06116C0.955547 21.0689 0.869927 20.9832 0.869927 20.8776V20.3722C0.869927 20.2666 0.955547 20.181 1.06116 20.181H3.79303C3.90082 20.1738 3.9845 20.0842 3.98426 19.9761V1.71355C3.99889 1.63026 3.95708 1.54724 3.88143 1.50942C3.80579 1.4716 3.71429 1.48795 3.65643 1.54964L0.487457 2.81996C0.396437 2.85453 0.293667 2.82027 0.241587 2.738L0.0230368 2.38286C-0.0279132 2.28461 0.00837678 2.16365 0.104997 2.10967L3.84766 0.320291L3.92963 0.306641Z" fill="#0F0F0F"/>
<path fill-rule="evenodd" clip-rule="evenodd" d="M15.4034 0.306641H17.0972C17.2052 0.306401 17.2949 0.390081 17.3021 0.497871V15.0314C17.3021 15.137 17.3877 15.2227 17.4933 15.2227H19.9247C20.0303 15.2227 20.1159 15.3083 20.1159 15.4139V15.9193C20.1159 16.0249 20.0303 16.1105 19.9247 16.1105H17.4933C17.3855 16.1177 17.3018 16.2074 17.3021 16.3154V20.8776C17.2949 20.9854 17.2052 21.0691 17.0972 21.0689H16.4142C16.3086 21.0689 16.223 20.9833 16.223 20.8776V16.3154C16.223 16.2023 16.1313 16.1105 16.0181 16.1105H9.33868C9.23065 16.1108 9.14099 16.0271 9.13379 15.9193V15.3456L15.2259 0.429591C15.254 0.355911 15.3246 0.307091 15.4034 0.306661V0.306641ZM10.5544 15.209H16.0181C16.1261 15.2092 16.2158 15.1256 16.223 15.0178V1.38573C16.2158 1.27794 16.1261 1.19426 16.0181 1.1945C15.9379 1.19064 15.8651 1.24103 15.8405 1.31743L10.3768 14.9768C10.3646 15.0318 10.3774 15.0894 10.4116 15.1342C10.4458 15.1789 10.4981 15.2063 10.5544 15.209Z" fill="#0F0F0F"/>
<path fill-rule="evenodd" clip-rule="evenodd" d="M27.1091 21.0689H22.7791C22.6735 21.0689 22.5879 20.9832 22.5879 20.8776V0.497871C22.5879 0.392261 22.6735 0.306641 22.7791 0.306641H32.0948C32.2004 0.306641 32.286 0.392261 32.286 0.497871V4.14492C32.286 4.25053 32.2004 4.33615 32.0948 4.33615H27.4916C27.386 4.33615 27.3004 4.42177 27.3004 4.52738V8.73446C27.3001 8.84249 27.3838 8.93215 27.4916 8.93935H31.5894C31.6975 8.93911 31.7871 9.02279 31.7943 9.13058V12.7776C31.7871 12.8854 31.6975 12.9691 31.5894 12.9689H27.4916C27.4022 12.9884 27.3392 13.0686 27.3414 13.1601V20.8776C27.3427 20.9363 27.3171 20.9924 27.2718 21.0297C27.2264 21.067 27.1665 21.0815 27.1092 21.0689H27.1091Z" fill="#0F0F0F"/>
<path fill-rule="evenodd" clip-rule="evenodd" d="M40.2638 0.183594C44.8943 0.183594 45.9325 1.12609 45.9325 5.22389V16.1514C45.9325 20.2492 44.8943 21.2053 40.2638 21.2053H39.7038C35.0733 21.2053 34.0352 20.1672 34.0352 16.1514V5.22389C34.0352 1.12608 35.0733 0.183594 39.7038 0.183594H40.2638ZM40.2638 17.3261C40.8648 17.3261 41.22 17.2168 41.22 16.3836V4.99168C41.22 4.15846 40.8648 4.03552 40.2638 4.03552H39.7584C39.1711 4.03552 38.8159 4.15845 38.8159 4.99168V16.3836C38.8159 17.2168 39.1711 17.3261 39.7584 17.3261H40.2638Z" fill="#0F0F0F"/>
<path fill-rule="evenodd" clip-rule="evenodd" d="M52.7215 0.306721C52.8271 0.306721 52.9127 0.392341 52.9127 0.497951V16.3565C52.9127 17.176 53.1176 17.3263 53.7459 17.3263H54.4836C55.0846 17.3263 55.3168 17.176 55.3168 16.3565V0.497951C55.3168 0.392341 55.4024 0.306721 55.508 0.306721H59.8653C59.9263 0.283261 59.9949 0.292501 60.0475 0.331231C60.1 0.369961 60.1292 0.432821 60.1249 0.497951V16.1379C60.1249 20.2357 59.0867 21.1919 54.4699 21.1919H53.8962C49.2793 21.1919 48.2412 20.2084 48.2412 16.1379V0.497951C48.2412 0.392341 48.3268 0.306721 48.4324 0.306721H52.7215Z" fill="#0F0F0F"/>
<path fill-rule="evenodd" clip-rule="evenodd" d="M62.4331 0.497871C62.4331 0.392261 62.5187 0.306641 62.6243 0.306641H68.6071C73.1967 0.306641 74.1802 1.24914 74.1802 5.25133V7.60074C74.1802 9.89551 73.7294 10.7834 72.5137 11.1249C72.4307 11.1477 72.3731 11.2232 72.3731 11.3093C72.3731 11.3954 72.4307 11.4709 72.5137 11.4937C73.784 11.9308 74.1802 12.9279 74.1802 15.209V20.864C74.173 20.9718 74.0833 21.0555 73.9753 21.0552H69.6862C69.5782 21.0555 69.4885 20.9718 69.4813 20.864V14.69C69.4813 13.9523 69.1945 13.324 68.6208 13.324H67.4324C67.3244 13.3238 67.2347 13.4075 67.2275 13.5152V20.8776C67.2275 20.9832 67.1419 21.0689 67.0363 21.0689H62.6243C62.5187 21.0689 62.4331 20.9832 62.4331 20.8776L62.4331 0.497871ZM67.1729 9.48573C67.1801 9.59352 67.2698 9.6772 67.3778 9.67696H68.6071C69.1399 9.67696 69.4267 9.55403 69.4267 8.81642V4.9918C69.4267 4.25419 69.0989 4.15858 68.5662 4.15858H67.3778C67.2698 4.15834 67.1801 4.24202 67.1729 4.34981L67.1729 9.48573Z" fill="#0F0F0F"/>
</svg>
