<svg xmlns="http://www.w3.org/2000/svg" width="80" height="80" viewBox="0 0 80 80" fill="none">
  <path d="M50.5 27.9998C47.9452 27.991 45.4137 28.4861 43.0504 29.4567C40.6871 30.4273 38.5384 31.8544 36.7272 33.6563C34.9161 35.4582 33.4779 37.5995 32.4952 39.9578C31.5125 42.3161 31.0044 44.845 31 47.3998V66.9998C31 67.7955 31.3161 68.5585 31.8787 69.1211C32.4413 69.6837 33.2043 69.9998 34 69.9998H41C41.7956 69.9998 42.5587 69.6837 43.1213 69.1211C43.6839 68.5585 44 67.7955 44 66.9998V47.3998C43.9993 46.4911 44.1902 45.5925 44.5601 44.7626C44.93 43.9326 45.4707 43.1899 46.1469 42.5829C46.8231 41.976 47.6196 41.5183 48.4845 41.2398C49.3494 40.9612 50.2633 40.8681 51.1667 40.9665C52.7867 41.1705 54.2755 41.962 55.3507 43.1908C56.4259 44.4197 57.0128 46.0004 57 47.6331V66.9998C57 67.7955 57.3161 68.5585 57.8787 69.1211C58.4413 69.6837 59.2044 69.9998 60 69.9998H67C67.7957 69.9998 68.5587 69.6837 69.1213 69.1211C69.6839 68.5585 70 67.7955 70 66.9998V47.3998C69.9956 44.845 69.4875 42.3161 68.5048 39.9578C67.5221 37.5995 66.084 35.4582 64.2728 33.6563C62.4616 31.8544 60.3129 30.4273 57.9496 29.4567C55.5863 28.4861 53.0548 27.991 50.5 27.9998Z" fill="#B8B8B8"/>
  <path d="M22 31.0002H13C11.3431 31.0002 10 32.3433 10 34.0002V67.0002C10 68.657 11.3431 70.0002 13 70.0002H22C23.6569 70.0002 25 68.657 25 67.0002V34.0002C25 32.3433 23.6569 31.0002 22 31.0002Z" fill="#B8B8B8"/>
  <path d="M17.5 25C21.6421 25 25 21.6421 25 17.5C25 13.3579 21.6421 10 17.5 10C13.3579 10 10 13.3579 10 17.5C10 21.6421 13.3579 25 17.5 25Z" fill="#B8B8B8"/>
</svg>